# xmcd
#
# Track frame offsets: 
#        150
#        29434
#        50411
#        73726
#        96362
#        126573
#        161199
#        183312
#        218552
#        232032
#
# Disc length: 3373 seconds
#
# Revision: 3
# Processed by: cddbd v1.5.2PL0 Copyright (c) Steve Scherf et al.
# Submitted via: ExactAudioCopy v0.99pb5
#
DISCID=950d2b0a
DTITLE=Various Artist - Trinh Cong Son - Nhu Mot Loi Chia Tay
DYEAR=2002
DGENRE=Ballad
TTITLE0=My Linh - Em hay ngu di
TTITLE1=My Tam - Cho doi chut on
TTITLE2=Thanh Lam - Ru doi di nhe
TTITLE3=Tran Thu Ha - Diem xua
TTITLE4=Bao Phuc - Tien thoai luong nan
TTITLE5=Thanh Lam - Uot mi
TTITLE6=Hong Nhung - Mot coi di ve
TTITLE7=Various Artist - Lien khuc Ru
TTITLE8=Cam Van - Song ve dau
TTITLE9=Quang Minh - Nhu mot loi chia tay
EXTD=
EXTT0=
EXTT1=
EXTT2=
EXTT3=
EXTT4=
EXTT5=
EXTT6=
EXTT7=
EXTT8=
EXTT9=
PLAYORDER=
